<?xml version="1.0" encoding="iso-8859-1"?>
<!-- Uploaded to: SVG Repo, www.svgrepo.com, Generator: SVG Repo Mixer Tools -->
<svg fill="#000000" height="800px" width="800px" version="1.1" id="Layer_1" xmlns="http://www.w3.org/2000/svg" xmlns:xlink="http://www.w3.org/1999/xlink" 
	 viewBox="0 0 512 512" xml:space="preserve">
<g>
	<g>
		<g>
			<path d="M255.913,162.133c37.811,0,70.81,20.642,88.542,51.2h122.957c-1.732-9.805-4.591-19.388-8.644-28.578
				c-18.287-41.489-56.175-65.289-103.936-65.289c-7.569,0-14.874,0.512-22.118,1.545V67.055c14.686-3.814,25.6-17.067,25.6-32.922
				C358.313,15.309,343.004,0,324.179,0H187.646c-18.825,0-34.133,15.309-34.133,34.133c0,15.855,10.914,29.107,25.6,32.922v53.939
				c-7.211-1.024-14.455-1.527-21.948-1.527c-47.761,0-85.641,23.799-103.936,65.28c-4.053,9.19-6.912,18.782-8.644,28.587h122.786
				C185.103,182.775,218.101,162.133,255.913,162.133z M170.579,34.133c0-9.412,7.654-17.067,17.067-17.067h136.533
				c9.412,0,17.067,7.654,17.067,17.067c0,9.412-7.654,17.067-17.067,17.067H187.646C178.234,51.2,170.579,43.546,170.579,34.133z"
				/>
			<path d="M285.846,230.4c-11.486,0-19.081,8.243-22.11,15.3c-1.34,3.14-4.42,5.18-7.842,5.18c-3.413,0-6.502-2.039-7.851-5.188
				c-3.004-7.049-10.607-15.292-22.093-15.292c-9.19,0-16.307,4.523-19.516,12.416c-3.977,9.788-1.084,21.453,7.39,29.722
				c6.383,6.229,30.899,29.602,42.069,40.09c11.665-10.948,35.968-33.852,41.941-39.953c8.61-8.789,11.563-20.676,7.518-30.293
				C302.102,234.658,295.181,230.4,285.846,230.4z"/>
			<path d="M469.219,230.4H352.338c3.797,10.692,5.973,22.153,5.973,34.133c0,56.465-45.935,102.4-102.4,102.4
				s-102.4-45.935-102.4-102.4c0-11.981,2.176-23.441,5.973-34.133H42.782c-1.724,38.639,13.133,79.113,42.667,111.437
				c27.998,30.626,163.183,166.332,164.506,167.663c1.604,1.604,3.772,2.5,6.042,2.5c2.27,0,4.429-0.896,6.042-2.5
				c1.323-1.331,136.508-137.037,164.506-167.663C456.086,309.513,470.934,269.03,469.219,230.4z"/>
			<path d="M255.911,179.196c-47.044,0-85.333,38.281-85.333,85.333c0,47.061,38.289,85.333,85.333,85.333
				c47.053,0,85.333-38.272,85.333-85.333C341.244,217.476,302.964,179.196,255.911,179.196z M310.038,284.617
				c-8.201,8.371-47.872,45.525-48.256,45.884c-1.638,1.527-3.729,2.295-5.828,2.295c-1.86,0-3.721-0.597-5.282-1.826
				c-2.944-2.313-42.615-40.218-48.768-46.217c-13.466-13.141-17.894-32.136-11.273-48.375c5.871-14.43,19.081-23.049,35.319-23.049
				c11.503,0,22.272,5.009,29.943,13.44c7.697-8.422,18.458-13.44,29.952-13.44c16.162,0,29.338,8.388,35.243,22.434
				C327.796,251.729,323.461,270.904,310.038,284.617z"/>
		</g>
	</g>
</g>
</svg>